<svg width="38" height="30" viewBox="0 0 38 30" fill="none" xmlns="http://www.w3.org/2000/svg">
<path d="M37.2889 5.7002C37.1478 5.61519 36.9842 5.57491 36.8198 5.58545C36.6554 5.59599 36.4981 5.65645 36.369 5.75879L27.745 12.5962L19.869 0.577148C19.7957 0.464905 19.6955 0.372403 19.5775 0.308594C19.4596 0.244784 19.3276 0.211426 19.1935 0.211426C19.0594 0.211426 18.9274 0.244784 18.8095 0.308594C18.6915 0.372403 18.5913 0.464905 18.518 0.577148L10.642 12.5962L2.01795 5.75879C1.88904 5.65507 1.73148 5.59376 1.56641 5.58252C1.40134 5.57128 1.23676 5.611 1.09498 5.69629C0.953198 5.78157 0.840986 5.90799 0.773566 6.05908C0.706145 6.21018 0.686802 6.37853 0.718024 6.54102L4.15906 24.8682C4.22906 26.2342 5.83301 27.3248 8.93201 28.1108C15.6943 29.5535 22.6848 29.5535 29.447 28.1108C32.547 27.3248 34.147 26.2342 34.22 24.8682L37.661 6.54102C37.6916 6.37965 37.6724 6.2127 37.606 6.0625C37.5395 5.9123 37.4289 5.78613 37.2889 5.7002ZM29.054 26.5439C22.5525 27.9216 15.8345 27.9216 9.33301 26.5439C6.43301 25.8079 5.77601 24.9999 5.77601 24.7749C5.77601 24.5499 6.43001 23.7429 9.33301 23.0059C15.8347 21.6302 22.5523 21.6302 29.054 23.0059C31.954 23.7429 32.611 24.5509 32.611 24.7749C32.611 24.9989 31.958 25.8 29.054 26.54V26.5439ZM32.9611 22.8359C31.8767 22.178 30.6906 21.705 29.4511 21.436C22.6888 19.9933 15.6983 19.9933 8.93604 21.436C7.69653 21.7049 6.51035 22.178 5.42603 22.8359L2.70997 8.36914L10.332 14.4121C10.4199 14.482 10.5214 14.5326 10.63 14.561C10.7387 14.5895 10.8521 14.595 10.963 14.5771C11.0739 14.5593 11.1797 14.5187 11.2739 14.4575C11.3681 14.3964 11.4486 14.3162 11.51 14.2222L19.194 2.49414L26.8781 14.2222C26.9394 14.3162 27.0197 14.3964 27.1138 14.4575C27.2079 14.5187 27.3138 14.5593 27.4246 14.5771C27.5354 14.595 27.6486 14.5895 27.7572 14.561C27.8658 14.5326 27.9673 14.482 28.0551 14.4121L35.678 8.36914L32.9611 22.8359Z" fill="#F0FBFF"/>
</svg>
