<svg width="13" height="8" viewBox="0 0 13 8" fill="none" xmlns="http://www.w3.org/2000/svg">
<path d="M7.50001 3.60031H4.15102V4.5593H6.40901C6.32935 5.08504 6.06329 5.5645 5.65941 5.91037C5.25552 6.25624 4.74077 6.44525 4.20903 6.44309C3.78117 6.44317 3.35975 6.33874 2.98143 6.13889C2.60311 5.93903 2.27934 5.65007 2.03825 5.2966C1.79716 4.94313 1.64605 4.53622 1.59807 4.11105C1.55008 3.68589 1.60668 3.25497 1.76292 2.85666C1.91917 2.45835 2.17035 2.10455 2.49461 1.82541C2.81887 1.54627 3.2064 1.35037 3.62352 1.2551C4.04064 1.15982 4.47471 1.16786 4.88801 1.27854C5.30132 1.38921 5.68132 1.59938 5.99501 1.89035L6.73601 1.25119C6.31496 0.836871 5.79844 0.532488 5.23198 0.364961C4.66552 0.197434 4.06654 0.172083 3.48787 0.290742C2.9092 0.409401 2.36862 0.668682 1.9138 1.04562C1.45899 1.42257 1.10391 1.90528 0.879897 2.45187C0.655889 2.99847 0.569846 3.5917 0.629317 4.17941C0.688788 4.76713 0.891964 5.33136 1.22093 5.82199C1.5499 6.31263 1.99453 6.7147 2.51564 6.99289C3.03675 7.27108 3.61832 7.41688 4.20903 7.41721C4.65568 7.42175 5.0985 7.33447 5.51005 7.16086C5.92161 6.98725 6.29313 6.73101 6.60158 6.40793C6.91003 6.08485 7.14884 5.70208 7.30321 5.28293C7.45758 4.86377 7.52423 4.41737 7.49901 3.97141L7.50001 3.60031Z" fill="#222221"/>
<path d="M12.317 3.64307H10.935V2.26123H10.053V3.64307H8.67001V4.5249H10.053V5.90723H10.935V4.5249H12.317V3.64307Z" fill="#222221"/>
</svg>
