<svg width="16" height="17" viewBox="0 0 16 17" fill="none" xmlns="http://www.w3.org/2000/svg">
<path d="M8.02795 2.23389C10.115 2.23389 10.362 2.24179 11.186 2.27979C11.6816 2.28531 12.1724 2.37635 12.637 2.54883C12.9742 2.67835 13.2805 2.87734 13.536 3.13281C13.7915 3.38829 13.9905 3.69495 14.12 4.03223C14.2929 4.49672 14.3843 4.9873 14.39 5.48291C14.427 6.30691 14.4351 6.55511 14.4351 8.64111C14.4351 10.7271 14.427 10.9748 14.39 11.7988C14.3843 12.2948 14.2929 12.7861 14.12 13.251C13.99 13.588 13.7909 13.894 13.5355 14.1494C13.2801 14.4048 12.974 14.6039 12.637 14.7339C12.1722 14.9059 11.6815 14.9969 11.186 15.0029C10.362 15.0409 10.115 15.0479 8.02795 15.0479C5.94095 15.0479 5.69399 15.0409 4.87 15.0029C4.37451 14.9969 3.88368 14.9058 3.41895 14.7339C3.08192 14.6037 2.77582 14.4048 2.52026 14.1494C2.26471 13.894 2.06545 13.5879 1.93506 13.251C1.7631 12.7859 1.67208 12.2946 1.66602 11.7988C1.62902 10.9748 1.62097 10.7281 1.62097 8.64111C1.62097 6.55411 1.62902 6.30691 1.66602 5.48291C1.67203 4.98742 1.76306 4.49695 1.93506 4.03223C2.06497 3.69501 2.26416 3.38875 2.51978 3.1333C2.77539 2.87786 3.08164 2.67851 3.41895 2.54883C3.88354 2.37639 4.37446 2.28535 4.87 2.27979C5.69399 2.24179 5.94095 2.23389 8.02795 2.23389ZM8.02795 0.826172C5.90495 0.826172 5.63903 0.835047 4.80603 0.873047C4.15674 0.885826 3.51428 1.00836 2.90601 1.23584C2.38687 1.43683 1.91536 1.74406 1.52173 2.1377C1.12809 2.53133 0.820985 3.00284 0.619995 3.52197C0.392382 4.13021 0.269602 4.77257 0.256958 5.42188C0.218958 6.25588 0.209961 6.52204 0.209961 8.64404C0.209961 10.766 0.218958 11.0332 0.256958 11.8672C0.269776 12.5165 0.39255 13.1588 0.619995 13.7671C0.820562 14.2864 1.12754 14.7578 1.52124 15.1514C1.91494 15.5449 2.38665 15.8514 2.90601 16.0518C3.514 16.2804 4.15659 16.4037 4.80603 16.416C5.63903 16.454 5.90595 16.4629 8.02795 16.4629C10.15 16.4629 10.417 16.454 11.25 16.416C11.8994 16.4037 12.542 16.2804 13.15 16.0518C13.6694 15.8514 14.1411 15.5449 14.5348 15.1514C14.9285 14.7578 15.2355 14.2864 15.436 13.7671C15.6635 13.1588 15.7861 12.5165 15.799 11.8672C15.837 11.0332 15.8459 10.767 15.8459 8.64404C15.8459 6.52104 15.837 6.25588 15.799 5.42188C15.7863 4.77257 15.6636 4.13021 15.436 3.52197C15.235 3.00284 14.9278 2.53133 14.5342 2.1377C14.1405 1.74406 13.6692 1.43683 13.15 1.23584C12.5417 1.00836 11.8993 0.885826 11.25 0.873047C10.417 0.835047 10.15 0.826172 8.02795 0.826172Z" fill="#222221"/>
<path d="M8.02794 4.62793C7.23424 4.62793 6.45838 4.86325 5.79845 5.3042C5.13851 5.74515 4.62415 6.37219 4.32042 7.10547C4.01669 7.83875 3.93731 8.64538 4.09215 9.42383C4.24699 10.2023 4.62919 10.9173 5.19042 11.4785C5.75164 12.0397 6.46666 12.4218 7.2451 12.5767C8.02355 12.7315 8.83043 12.6524 9.56371 12.3486C10.297 12.0449 10.9238 11.5305 11.3647 10.8706C11.8057 10.2107 12.041 9.43481 12.041 8.64111C12.041 7.5768 11.6182 6.55581 10.8656 5.80322C10.113 5.05064 9.09225 4.62793 8.02794 4.62793ZM8.02794 11.2461C7.51392 11.2451 7.01173 11.0915 6.58482 10.8052C6.15792 10.5189 5.82552 10.1129 5.6295 9.6377C5.43348 9.16252 5.38262 8.63976 5.48351 8.13574C5.58439 7.63172 5.83246 7.16878 6.19627 6.80566C6.56009 6.44255 7.02336 6.19562 7.52757 6.0957C8.03179 5.99579 8.55436 6.04769 9.02916 6.24463C9.50396 6.44156 9.90971 6.77469 10.1952 7.20215C10.4806 7.62961 10.633 8.13198 10.633 8.646C10.633 8.98785 10.5655 9.32632 10.4346 9.64209C10.3036 9.95786 10.1117 10.2448 9.86974 10.4863C9.62777 10.7278 9.34055 10.9189 9.02452 11.0493C8.7085 11.1797 8.3698 11.2468 8.02794 11.2461Z" fill="#222221"/>
<path d="M13.138 4.46924C13.1382 4.6548 13.0834 4.83585 12.9804 4.99023C12.8775 5.14462 12.7311 5.26528 12.5598 5.33643C12.3884 5.40757 12.1997 5.42622 12.0176 5.39014C11.8356 5.35406 11.6684 5.26493 11.5372 5.13379C11.4059 5.00265 11.3165 4.8353 11.2802 4.65332C11.2439 4.47134 11.2623 4.28278 11.3333 4.11133C11.4043 3.93987 11.5245 3.79305 11.6788 3.68994C11.833 3.58683 12.0144 3.53223 12.2 3.53223C12.4486 3.53223 12.6871 3.63046 12.863 3.80615C13.0389 3.98185 13.1377 4.22064 13.138 4.46924Z" fill="#222221"/>
</svg>
