<svg width="38" height="37" viewBox="0 0 38 37" fill="none" xmlns="http://www.w3.org/2000/svg">
<path d="M19.457 36.9771C18.4371 36.9758 17.4557 36.5872 16.7111 35.8901C15.9666 35.1931 15.5144 34.2398 15.446 33.2222C14.1993 32.8826 13.0013 32.3849 11.881 31.7412C11.1136 32.4143 10.119 32.7702 9.09882 32.7368C8.07864 32.7035 7.10933 32.2833 6.38757 31.5615C5.66582 30.8398 5.24563 29.8703 5.21228 28.8501C5.17893 27.8299 5.53493 26.8352 6.20801 26.0679C5.56451 24.9475 5.06679 23.7495 4.72699 22.5029C3.70964 22.4347 2.75622 21.9825 2.05975 21.2378C1.36329 20.4931 0.97583 19.5118 0.97583 18.4922C0.97583 17.4726 1.36329 16.4908 2.05975 15.7461C2.75622 15.0014 3.70964 14.5491 4.72699 14.481C5.06679 13.2341 5.5645 12.0358 6.20801 10.915C5.53493 10.1477 5.17893 9.15299 5.21228 8.13281C5.24563 7.11264 5.66582 6.14314 6.38757 5.42139C7.10933 4.69963 8.07864 4.27944 9.09882 4.24609C10.119 4.21274 11.1136 4.56911 11.881 5.24219C13.0014 4.59868 14.1994 4.10102 15.446 3.76123C15.5123 2.74245 15.9639 1.78693 16.7089 1.08887C17.4539 0.390808 18.4366 0.00244141 19.4575 0.00244141C20.4785 0.00244141 21.4611 0.390808 22.2061 1.08887C22.9511 1.78693 23.4026 2.74245 23.469 3.76123C24.7155 4.1012 25.9135 4.59885 27.034 5.24219C27.8014 4.56911 28.796 4.21274 29.8162 4.24609C30.8364 4.27944 31.8056 4.69963 32.5274 5.42139C33.2492 6.14314 33.6693 7.11264 33.7027 8.13281C33.736 9.15299 33.38 10.1477 32.707 10.915C33.3505 12.0358 33.8482 13.2341 34.188 14.481C35.2053 14.5491 36.1588 15.0014 36.8552 15.7461C37.5517 16.4908 37.9391 17.4726 37.9391 18.4922C37.9391 19.5118 37.5517 20.4931 36.8552 21.2378C36.1588 21.9825 35.2053 22.4347 34.188 22.5029C33.8482 23.7495 33.3505 24.9475 32.707 26.0679C33.38 26.8352 33.736 27.8299 33.7027 28.8501C33.6693 29.8703 33.2492 30.8398 32.5274 31.5615C31.8056 32.2833 30.8364 32.7035 29.8162 32.7368C28.796 32.7702 27.8014 32.4143 27.034 31.7412C25.9137 32.3849 24.7156 32.8826 23.469 33.2222C23.4006 34.2399 22.9483 35.1936 22.2035 35.8906C21.4587 36.5877 20.477 36.9761 19.457 36.9771ZM11.732 29.8989C11.8851 29.8987 12.035 29.9424 12.164 30.0249C13.4821 30.8625 14.9352 31.4659 16.459 31.8081C16.6534 31.8519 16.8248 31.966 16.9403 32.1284C17.0558 32.2908 17.1074 32.49 17.085 32.688C17.085 32.729 17.075 32.7691 17.07 32.8101C17.0621 32.8591 17.0567 32.9084 17.054 32.958C17.054 33.5955 17.3073 34.207 17.758 34.6577C18.2087 35.1085 18.8201 35.3613 19.4575 35.3613C20.095 35.3613 20.7063 35.1085 21.157 34.6577C21.6078 34.207 21.861 33.5955 21.861 32.958C21.8584 32.9081 21.853 32.8584 21.845 32.8091C21.845 32.7691 21.834 32.729 21.83 32.688C21.8074 32.4899 21.8588 32.2904 21.9744 32.1279C22.0899 31.9655 22.2615 31.8517 22.456 31.8081C23.9798 31.466 25.4329 30.8625 26.751 30.0249C26.9193 29.9178 27.1214 29.8769 27.3181 29.9102C27.5148 29.9434 27.6922 30.0486 27.816 30.2051C27.841 30.2361 27.865 30.2678 27.889 30.2988C27.9199 30.3411 27.9533 30.3816 27.989 30.4199C28.4399 30.8708 29.0514 31.124 29.689 31.124C30.3266 31.124 30.9381 30.8708 31.389 30.4199C31.8398 29.9691 32.0931 29.3578 32.0931 28.7202C32.0931 28.0826 31.8398 27.4709 31.389 27.02C31.364 26.996 31.317 26.9599 31.268 26.9199L31.174 26.8472C31.0175 26.7234 30.9125 26.5458 30.879 26.3491C30.8456 26.1524 30.8862 25.9507 30.993 25.7822C31.8308 24.4641 32.4344 23.0106 32.777 21.4868C32.821 21.2925 32.9351 21.1213 33.0975 21.0059C33.2598 20.8904 33.459 20.8387 33.657 20.8608L33.777 20.876C33.8263 20.8841 33.8761 20.8895 33.926 20.8921C34.5635 20.8921 35.1748 20.6387 35.6255 20.188C36.0763 19.7372 36.3295 19.1257 36.3295 18.4883C36.3295 17.8508 36.0763 17.2398 35.6255 16.7891C35.1748 16.3383 34.5635 16.085 33.926 16.085C33.894 16.085 33.838 16.0931 33.779 16.1011L33.656 16.1172C33.458 16.139 33.259 16.0869 33.0968 15.9712C32.9347 15.8555 32.8208 15.6845 32.777 15.4902C32.4348 13.9666 31.8312 12.5134 30.993 11.1958C30.8863 11.0269 30.8457 10.8249 30.8792 10.6279C30.9126 10.431 31.0176 10.2531 31.174 10.1289L31.267 10.0581C31.3098 10.027 31.3509 9.99356 31.39 9.95801C31.6133 9.73476 31.7903 9.46991 31.9111 9.17822C32.032 8.88654 32.0942 8.57353 32.0942 8.25781C32.0942 7.94209 32.032 7.62958 31.9111 7.33789C31.7903 7.0462 31.6133 6.78135 31.39 6.55811C31.1668 6.33486 30.9017 6.15744 30.61 6.03662C30.3184 5.9158 30.0057 5.854 29.69 5.854C29.3743 5.854 29.0616 5.9158 28.77 6.03662C28.4783 6.15744 28.2132 6.33486 27.99 6.55811C27.9543 6.59643 27.9209 6.63692 27.89 6.6792L27.817 6.77393C27.693 6.93005 27.5156 7.03464 27.319 7.06787C27.1224 7.1011 26.9205 7.06079 26.752 6.9541C25.4338 6.11638 23.9807 5.51265 22.457 5.16992C22.2623 5.12651 22.0907 5.01259 21.9751 4.8501C21.8595 4.6876 21.8082 4.48815 21.831 4.29004C21.831 4.25004 21.841 4.20992 21.846 4.16992C21.854 4.12057 21.8593 4.07091 21.862 4.021C21.862 3.38355 21.6088 2.77203 21.158 2.32129C20.7073 1.87055 20.0959 1.61768 19.4585 1.61768C18.821 1.61768 18.2097 1.87055 17.759 2.32129C17.3082 2.77203 17.055 3.38355 17.055 4.021C17.0577 4.07025 17.063 4.11929 17.071 4.16797C17.076 4.20897 17.082 4.25002 17.086 4.29102C17.1086 4.48896 17.0571 4.68831 16.9415 4.85059C16.826 5.01287 16.6545 5.12652 16.46 5.16992C14.9363 5.51267 13.4832 6.1164 12.165 6.9541C11.9965 7.06079 11.7946 7.1011 11.598 7.06787C11.4014 7.03464 11.224 6.93005 11.1 6.77393L11.027 6.6792C10.9958 6.63716 10.9624 6.59668 10.927 6.55811C10.7038 6.33486 10.4387 6.15744 10.147 6.03662C9.85535 5.9158 9.54271 5.854 9.22699 5.854C8.91127 5.854 8.59863 5.9158 8.30695 6.03662C8.01526 6.15744 7.75022 6.33486 7.52698 6.55811C7.30373 6.78135 7.12668 7.0462 7.00586 7.33789C6.88504 7.62958 6.82281 7.94209 6.82281 8.25781C6.82281 8.57353 6.88504 8.88654 7.00586 9.17822C7.12668 9.46991 7.30373 9.73476 7.52698 9.95801C7.56582 9.9935 7.60656 10.027 7.64899 10.0581L7.742 10.1289C7.89846 10.2531 8.00339 10.4309 8.03662 10.6279C8.06985 10.8249 8.02904 11.0271 7.922 11.1958C7.08454 12.5136 6.48129 13.9668 6.13898 15.4902C6.09518 15.6845 5.98136 15.8555 5.81921 15.9712C5.65706 16.0869 5.45798 16.139 5.26001 16.1172L5.13702 16.1011C5.07802 16.0931 5.02199 16.085 4.98999 16.085C4.35254 16.085 3.74121 16.3383 3.29047 16.7891C2.83972 17.2398 2.58649 17.8508 2.58649 18.4883C2.58649 19.1257 2.83972 19.7372 3.29047 20.188C3.74121 20.6387 4.35254 20.8921 4.98999 20.8921C5.03991 20.8895 5.08964 20.884 5.13898 20.876L5.25897 20.8608C5.45697 20.8387 5.6562 20.8904 5.81854 21.0059C5.98089 21.1213 6.09495 21.2925 6.13898 21.4868C6.48163 23.0105 7.08484 24.4639 7.922 25.7822C8.02913 25.9505 8.07005 26.1524 8.0368 26.3491C8.00355 26.5458 7.8985 26.7234 7.742 26.8472L7.64801 26.9199C7.59901 26.9579 7.548 26.994 7.526 27.02C7.07513 27.4709 6.82184 28.0826 6.82184 28.7202C6.82184 29.3578 7.07513 29.9691 7.526 30.4199C7.97687 30.8708 8.58839 31.124 9.22601 31.124C9.86364 31.124 10.4752 30.8708 10.926 30.4199C10.9617 30.3816 10.9951 30.3411 11.026 30.2988C11.05 30.2678 11.074 30.2361 11.099 30.2051C11.1746 30.1097 11.2709 30.0328 11.3805 29.98C11.4901 29.9272 11.6103 29.8996 11.732 29.8999V29.8989ZM19.457 28.8989C17.3989 28.8987 15.3872 28.2886 13.676 27.145C11.9649 26.0015 10.6313 24.3761 9.84381 22.4746C9.05636 20.5731 8.85044 18.4809 9.25208 16.4624C9.65371 14.4439 10.6449 12.5895 12.1002 11.1343C13.5556 9.67907 15.4097 8.68855 17.4283 8.28711C19.4468 7.88567 21.539 8.09176 23.4404 8.87939C25.3418 9.66703 26.967 11.0007 28.1104 12.7119C29.2537 14.4232 29.864 16.4351 29.864 18.4932C29.8611 21.2524 28.7637 23.8976 26.8126 25.8486C24.8616 27.7997 22.2162 28.897 19.457 28.8999V28.8989ZM19.457 9.69922C17.7185 9.69922 16.0191 10.2143 14.5735 11.1802C13.128 12.146 12.0014 13.5188 11.3361 15.125C10.6708 16.7312 10.4967 18.4985 10.8359 20.2036C11.175 21.9087 12.0122 23.4753 13.2415 24.7046C14.4708 25.9339 16.037 26.7707 17.7421 27.1099C19.4472 27.449 21.2146 27.2752 22.8208 26.6099C24.427 25.9446 25.7998 24.8181 26.7656 23.3726C27.7315 21.927 28.247 20.2273 28.247 18.4888C28.2441 16.1585 27.317 13.925 25.6692 12.2773C24.0213 10.6297 21.7872 9.70284 19.457 9.7002V9.69922Z" fill="#F0FBFF"/>
</svg>
