<svg width="33" height="38" viewBox="0 0 33 38" fill="none" xmlns="http://www.w3.org/2000/svg">
<path d="M16.336 37.977C14.277 37.977 8.86903 35.2768 5.08302 31.0478C3.4281 29.3297 2.16396 27.2745 1.37709 25.0224C0.590229 22.7704 0.2992 20.3749 0.524004 18C1.208 11.841 1.50704 9.06718 1.63704 7.82518C1.67444 7.44777 1.81691 7.08809 2.0483 6.78759C2.27968 6.48708 2.59068 6.2576 2.946 6.12499L16.189 1.12987C16.6657 0.949293 17.1928 0.95445 17.666 1.14403L30.106 6.11278C30.4615 6.25296 30.77 6.49123 30.9959 6.7993C31.2219 7.10738 31.3561 7.47288 31.383 7.85399C31.471 9.02099 31.711 11.9541 32.327 18.4741V18.4849C32.506 20.845 32.182 23.2162 31.3764 25.4419C30.5709 27.6675 29.3021 29.6971 27.654 31.396C23.617 35.78 18.222 37.977 16.336 37.977ZM16.909 2.62206C16.8581 2.62207 16.8077 2.63107 16.76 2.64891L3.51601 7.64891C3.44253 7.67621 3.37818 7.72358 3.33028 7.78563C3.28237 7.84768 3.25283 7.92199 3.24501 7.99999C3.11401 9.24499 2.815 12.022 2.131 18.186C1.94464 20.3337 2.21903 22.4962 2.93575 24.5293C3.65247 26.5624 4.79501 28.4191 6.287 29.9751C10.061 34.1911 15.042 36.3662 16.336 36.3662C17.588 36.3662 22.6 34.504 26.467 30.312C27.9714 28.7837 29.1295 26.9498 29.8628 24.9346C30.5961 22.9193 30.8874 20.7696 30.717 18.6318C30.1 12.1028 29.86 9.1598 29.772 7.9868C29.7663 7.90779 29.7384 7.8324 29.6915 7.76854C29.6446 7.70468 29.5807 7.65511 29.507 7.62596L17.066 2.65721C17.0164 2.63566 16.9631 2.62362 16.909 2.62206Z" fill="#F0FBFF"/>
<path d="M22.586 28.2998C22.4152 28.2997 22.249 28.2456 22.111 28.145L16.405 23.9922L10.7 28.1328C10.5622 28.2323 10.3964 28.2862 10.2264 28.2861C10.0564 28.286 9.8908 28.232 9.7531 28.1323C9.6154 28.0326 9.51269 27.8919 9.45952 27.7305C9.40636 27.569 9.40542 27.3949 9.45696 27.2329L11.635 20.5601L5.93498 16.4468C5.79652 16.3468 5.69331 16.2058 5.64019 16.0435C5.58706 15.8811 5.58672 15.706 5.63927 15.5435C5.69182 15.3809 5.79455 15.2392 5.93267 15.1387C6.07078 15.0382 6.23719 14.9839 6.40801 14.9839H13.46L15.639 8.27686C15.6914 8.11417 15.7942 7.9727 15.9324 7.87207C16.0705 7.77144 16.2371 7.7168 16.408 7.7168C16.5789 7.7168 16.7455 7.77144 16.8837 7.87207C17.0218 7.9727 17.1245 8.11417 17.177 8.27686L19.356 14.9839H26.408C26.5788 14.9839 26.7452 15.0382 26.8833 15.1387C27.0215 15.2392 27.1241 15.3809 27.1767 15.5435C27.2292 15.706 27.2289 15.8811 27.1758 16.0435C27.1226 16.2058 27.0194 16.3468 26.881 16.4468L21.181 20.5591L23.359 27.2461C23.3984 27.3675 23.4086 27.4965 23.3887 27.6226C23.3687 27.7486 23.3192 27.8679 23.2442 27.9712C23.1692 28.0745 23.0708 28.1588 22.9571 28.2168C22.8434 28.2748 22.7176 28.3051 22.59 28.3052L22.586 28.2998ZM16.406 22.1851C16.5769 22.1848 16.7436 22.2385 16.882 22.3389L21.046 25.3711L19.457 20.4932C19.4047 20.33 19.4056 20.1543 19.4595 19.9917C19.5134 19.8291 19.6176 19.6875 19.757 19.5879L23.908 16.5952H18.771C18.6003 16.5954 18.434 16.5412 18.2958 16.4409C18.1577 16.3407 18.0548 16.1994 18.002 16.0371L16.41 11.1372L14.818 16.0371C14.7652 16.1994 14.6623 16.3407 14.5242 16.4409C14.386 16.5412 14.2197 16.5954 14.049 16.5952H8.911L13.063 19.5898C13.2026 19.6895 13.3069 19.8313 13.3608 19.9941C13.4148 20.157 13.4155 20.3328 13.363 20.4961L11.775 25.3618L15.939 22.3389C16.0747 22.2398 16.238 22.1858 16.406 22.1841V22.1851Z" fill="#F0FBFF"/>
</svg>
