<svg width="87" height="106" viewBox="0 0 87 106" fill="none" xmlns="http://www.w3.org/2000/svg">
<path d="M74.613 31.958C74.535 29.67 74.582 27.3582 74.292 25.0962C73.571 19.4242 72.671 13.7758 71.892 8.11279C71.6986 6.23377 70.8219 4.49161 69.4285 3.21631C68.035 1.94101 66.2218 1.22141 64.333 1.19482C57.369 0.999824 50.405 0.843086 43.433 0.663086C36.477 0.843086 29.513 0.999824 22.549 1.19482C20.7143 1.20523 18.9449 1.8774 17.5662 3.08789C16.1874 4.29839 15.2918 5.96623 15.044 7.78418C14.504 11.2302 14.044 14.6928 13.556 18.1548C13.18 20.7868 12.631 23.4189 12.498 26.0669C12.169 32.4749 12.044 38.898 11.856 45.314C11.8647 45.6452 12.0025 45.9599 12.24 46.1909C15.7573 49.4656 19.2877 52.7241 22.831 55.9668C23.471 56.5329 23.8968 57.3021 24.037 58.145C25.1957 64.1224 26.3623 70.0965 27.537 76.0679C27.827 77.5679 27.837 77.5679 29.346 77.5679C38.738 77.5679 48.1303 77.5654 57.523 77.5601C57.845 77.5601 58.173 77.4888 58.495 77.4888C58.949 77.4968 59.114 77.3092 59.2 76.8472C60.4 70.6112 61.628 64.3838 62.835 58.1558C62.9748 57.3105 63.4005 56.5392 64.041 55.9702C67.55 52.7592 71.041 49.523 74.561 46.312C74.7248 46.1775 74.8539 46.0055 74.9371 45.8105C75.0203 45.6156 75.0553 45.4033 75.039 45.1919C74.879 40.7779 74.762 36.368 74.613 31.958ZM58.351 77.0942H28.529C28.356 75.9352 28.192 74.7758 28.019 73.5688H58.836C58.672 74.7758 58.515 75.9192 58.351 77.0942ZM59.118 71.5249C59.103 71.6419 58.805 71.7752 58.633 71.7832C57.583 71.8072 56.541 71.791 55.491 71.791C46.491 71.791 37.4957 71.7935 28.505 71.7988C27.949 71.7988 27.698 71.6991 27.659 71.0781C27.596 70.1461 27.408 69.2221 27.268 68.2031H59.588C59.44 69.3391 59.3 70.4359 59.118 71.5249ZM59.855 66.4019H27.017C26.852 65.2579 26.688 64.1019 26.517 62.9019H60.349C60.184 64.0909 60.019 65.2269 59.855 66.3999V66.4019ZM60.607 61.0508H26.257C26.157 60.3308 26.057 59.651 25.957 58.874C27.8163 58.5285 29.6947 58.2946 31.582 58.1738C39.4853 58.0952 47.3853 58.0952 55.282 58.1738C57.1689 58.2946 59.047 58.5286 60.906 58.874C60.8 59.657 60.709 60.3378 60.607 61.0508ZM71.507 43.2148C71.507 43.4338 71.483 43.6452 71.483 43.7632C52.7927 42.5813 34.0466 42.5783 15.356 43.7549V43.1602C15.356 38.9695 15.356 34.7758 15.356 30.5791C15.3215 29.9768 15.4145 29.374 15.6288 28.8101C15.8431 28.2461 16.174 27.734 16.5999 27.3066C17.0257 26.8793 17.5368 26.5464 18.1 26.3301C18.6631 26.1138 19.2656 26.0184 19.868 26.0508H66.979C67.5816 26.0179 68.1843 26.1127 68.748 26.3281C69.3117 26.5436 69.8238 26.8749 70.2509 27.3013C70.6779 27.7276 71.0105 28.2394 71.2269 28.8027C71.4434 29.3661 71.5388 29.9682 71.507 30.5708V43.2148Z" fill="#47ABD8"/>
<path d="M79.485 75.7998C73.955 76.5908 68.425 77.3742 62.894 78.1812C60.0733 78.6383 57.2215 78.8766 54.364 78.894C46.522 78.824 38.681 78.8711 30.832 78.8711C30.114 78.9142 29.3939 78.9063 28.677 78.8472C23.421 78.1112 18.177 77.3468 12.924 76.5908C11.024 76.3168 9.13299 76.0512 7.25299 75.7842C7.21399 75.8782 7.17401 75.9172 7.17401 75.9492C7.19801 76.6492 7.214 77.3488 7.245 78.0488C7.40359 83.2666 8.02741 88.46 9.10901 93.5669C9.15728 94.0376 9.29849 94.4944 9.52441 94.9102C9.75034 95.3259 10.0565 95.6927 10.4252 95.9893C10.7939 96.2859 11.2177 96.5061 11.6722 96.6377C12.1267 96.7693 12.6029 96.8095 13.073 96.7559C20.217 96.7559 27.361 96.7534 34.505 96.748C47.697 96.748 60.8913 96.7505 74.088 96.7559C74.9273 96.8018 75.7544 96.5387 76.4128 96.0161C77.0712 95.4935 77.5153 94.7478 77.661 93.9199C78.6226 89.6586 79.2276 85.3246 79.47 80.9629C79.58 79.2629 79.634 77.5628 79.721 75.8398C79.6447 75.8152 79.5652 75.8017 79.485 75.7998ZM56.972 91.208H29.884V86.2651H56.972V91.208Z" fill="#47ABD8"/>
<path d="M27.275 76.9849C25.34 72.4729 23.444 67.9532 21.439 63.4722C20.9883 62.5067 20.3491 61.6407 19.559 60.9258C17.115 58.7168 14.585 56.6021 12.086 54.4561C11.929 54.3151 11.749 54.189 11.506 54.001C8.16898 60.44 7.22099 67.31 7.12799 74.439C13.888 75.41 20.601 76.3742 27.377 77.3452C27.322 77.1492 27.307 77.0629 27.275 76.9849ZM21.094 74.6191L10.848 72.8799C10.656 72.8704 10.4679 72.8226 10.2949 72.7388C10.1219 72.655 9.96759 72.5368 9.84113 72.3921C9.71466 72.2473 9.61865 72.0787 9.55884 71.896C9.49902 71.7133 9.47663 71.5206 9.49298 71.3291C9.48498 70.5691 9.49298 69.801 9.49298 69.041C9.49298 68.297 9.48498 67.5529 9.49298 66.8169C9.46111 66.537 9.50015 66.2536 9.60651 65.9927C9.71286 65.7318 9.88313 65.5021 10.1016 65.3242C10.3201 65.1464 10.5798 65.0263 10.8569 64.9751C11.1339 64.9239 11.4194 64.9428 11.687 65.0308C13.5145 65.3695 15.2592 66.0588 16.825 67.0601C17.7695 67.6057 18.6721 68.2209 19.525 68.9009C20.0515 69.3476 20.4629 69.9145 20.725 70.5532C21.164 71.6422 21.431 72.7939 21.76 73.9219C21.956 74.6109 21.823 74.7441 21.094 74.6191Z" fill="#47ABD8"/>
<path d="M75.271 54.0718C75.138 54.1718 74.997 54.272 74.871 54.377C72.286 56.602 69.671 58.7771 67.148 61.0771C66.389 61.7939 65.7793 62.6535 65.354 63.6069C63.999 66.5839 62.754 69.615 61.468 72.624C60.802 74.167 60.145 75.7018 59.44 77.3628C66.255 76.3758 72.968 75.4121 79.658 74.4561C80.347 69.3861 77.692 57.0558 75.271 54.0718ZM77.378 67.522C77.339 68.022 77.371 68.522 77.371 69.022C77.371 69.79 77.378 70.5489 77.371 71.3169C77.3906 71.5031 77.3728 71.6915 77.3184 71.8706C77.2641 72.0498 77.1744 72.216 77.0546 72.3599C76.9348 72.5037 76.7873 72.6221 76.6209 72.708C76.4545 72.7939 76.2727 72.8455 76.086 72.8599C72.608 73.4559 69.1273 74.0492 65.644 74.6392C65.072 74.7392 64.923 74.5758 65.096 73.9878C65.44 72.7978 65.761 71.5988 66.176 70.4238C66.3391 69.9281 66.6315 69.4852 67.023 69.1401C69.1856 67.3296 71.6972 65.9827 74.402 65.1831C76.329 64.6861 77.574 65.148 77.378 67.522Z" fill="#47ABD8"/>
<path d="M8.319 37.1423C8.319 39.0403 8.319 40.9381 8.319 42.8361C8.35306 43.1033 8.32788 43.3746 8.24521 43.631C8.16254 43.8874 8.02441 44.1225 7.84067 44.3195C7.65692 44.5165 7.43206 44.6709 7.18204 44.7712C6.93201 44.8715 6.66297 44.9155 6.39401 44.9001C4.97701 44.9461 3.55802 44.9401 2.14102 44.9001C1.90509 44.9195 1.66786 44.8855 1.44711 44.8C1.22636 44.7145 1.02786 44.5797 0.866546 44.4064C0.705231 44.2332 0.58526 44.0258 0.515716 43.7995C0.446173 43.5732 0.428888 43.3342 0.465057 43.1003C0.639724 39.2003 0.822674 35.3001 1.01401 31.4001C1.06701 30.3211 1.49802 29.9091 2.56302 29.9001C4.00169 29.8901 5.44138 29.8901 6.88205 29.9001C7.93205 29.9071 8.32301 30.325 8.32101 31.381C8.31768 33.3024 8.317 35.2229 8.319 37.1423Z" fill="#47ABD8"/>
<path d="M86.127 37.425C86.218 39.298 86.327 41.1711 86.398 43.0451C86.4421 43.2895 86.4284 43.5409 86.358 43.779C86.2876 44.0171 86.1624 44.2352 85.9926 44.4162C85.8227 44.5973 85.6128 44.7361 85.3796 44.8215C85.1465 44.9069 84.8967 44.9369 84.65 44.9084C83.276 44.9354 81.901 44.9414 80.528 44.9084C80.2539 44.9295 79.9786 44.8888 79.722 44.7903C79.4654 44.6917 79.234 44.5373 79.0445 44.3381C78.855 44.139 78.7122 43.9001 78.6265 43.6389C78.5408 43.3777 78.5144 43.101 78.549 42.8283C78.549 38.989 78.549 35.1499 78.549 31.3113C78.549 30.3433 78.961 29.911 79.933 29.905C81.3937 29.8923 82.855 29.8923 84.317 29.905C85.354 29.913 85.799 30.3253 85.851 31.3493C85.953 33.3723 86.036 35.4 86.127 37.425Z" fill="#47ABD8"/>
<path d="M66.271 98.0591H68.5C70.224 98.0591 71.9499 98.0158 73.6729 98.0698C74.6318 98.1503 75.5937 97.9552 76.4453 97.5073C77.297 97.0594 78.0029 96.3776 78.48 95.542C78.5103 95.7026 78.5314 95.8648 78.543 96.0278C78.548 98.6478 78.555 101.268 78.543 103.888C78.5643 104.124 78.533 104.361 78.4515 104.583C78.3699 104.806 78.24 105.007 78.0711 105.173C77.9023 105.339 77.6987 105.466 77.4751 105.543C77.2515 105.621 77.0134 105.648 76.778 105.623C73.8533 105.629 70.928 105.629 68.002 105.623C67.7886 105.647 67.5726 105.626 67.3677 105.562C67.1627 105.498 66.9733 105.392 66.8113 105.251C66.6494 105.11 66.5185 104.937 66.4269 104.743C66.3352 104.549 66.2848 104.338 66.279 104.123C66.239 102.135 66.271 100.15 66.271 98.0591Z" fill="#47ABD8"/>
<path d="M8.31298 95.667C8.87623 96.5026 9.65689 97.1687 10.5708 97.5933C11.4847 98.0178 12.4972 98.1847 13.499 98.0762C15.592 98.0002 17.69 98.0591 19.786 98.0591H20.564C20.58 98.3131 20.603 98.521 20.604 98.729C20.604 100.389 20.604 102.048 20.604 103.707C20.6464 103.969 20.6258 104.237 20.5441 104.49C20.4623 104.742 20.3216 104.972 20.1337 105.159C19.9457 105.347 19.7158 105.486 19.463 105.567C19.2102 105.648 18.9419 105.668 18.68 105.625C15.842 105.625 13.0036 105.625 10.165 105.625C9.91372 105.661 9.65759 105.638 9.4168 105.558C9.17601 105.477 8.9572 105.342 8.77764 105.163C8.59808 104.984 8.46272 104.765 8.38225 104.524C8.30179 104.283 8.27843 104.027 8.31402 103.776C8.31002 101.072 8.30965 98.369 8.31298 95.667Z" fill="#47ABD8"/>
<path d="M76.41 49.9648C76.41 48.9428 76.39 48.115 76.426 47.29C76.4392 47.1846 76.4762 47.0832 76.5342 46.9941C76.5922 46.9051 76.6698 46.8305 76.761 46.7759C77.413 46.4759 78.09 46.2351 78.761 45.9761C78.8579 45.9297 78.9636 45.9046 79.071 45.9028C80.256 46.0028 81.44 46.1199 82.624 46.2349C82.655 46.2349 82.682 46.2808 82.756 46.3428L76.41 49.9648Z" fill="#47ABD8"/>
<path d="M10.407 49.9341L3.95697 46.2598C4.35697 46.2398 4.581 46.2378 4.802 46.2168C5.771 46.1228 6.73902 46.008 7.71002 45.938C7.96508 45.9427 8.21609 46.0022 8.44598 46.1128C9.10998 46.3768 10.008 46.4981 10.352 46.9951C10.676 47.4631 10.412 48.3382 10.407 49.0342C10.405 49.2892 10.407 49.5431 10.407 49.9341Z" fill="#47ABD8"/>
</svg>
