<svg width="45" height="35" viewBox="0 0 45 35" fill="none" xmlns="http://www.w3.org/2000/svg">
<path d="M32.39 6.4577C31.601 6.4097 30.906 6.3657 30.211 6.3247C29.9877 6.33878 29.7636 6.32737 29.543 6.2907C28.9 6.0907 28.543 6.4067 28.143 6.8727C24.3903 11.3474 20.6236 15.8124 16.843 20.2677L16.298 20.9127L13.282 17.3517C13.261 17.3277 13.243 17.3017 13.222 17.2767C12.959 16.9577 12.476 16.6277 12.492 16.3227C12.51 15.9747 12.964 15.6427 13.242 15.3147C17.077 10.7847 20.928 6.26769 24.734 1.71469C24.9565 1.40847 25.2514 1.16216 25.5924 0.997776C25.9334 0.833393 26.3098 0.756061 26.688 0.772694C32.231 0.759694 37.774 0.688695 43.317 0.637695C43.808 0.637695 44.299 0.637695 44.876 0.637695C44.576 1.0207 44.307 1.3647 44.03 1.6997C39.9366 6.65836 35.8406 11.6144 31.742 16.5677C31.542 16.8077 31.61 16.9367 31.771 17.1267C33.609 19.292 35.4443 21.4587 37.277 23.6267C38.9056 25.552 40.536 27.475 42.168 29.3957C42.2061 29.4279 42.237 29.4677 42.2589 29.5126C42.2808 29.5575 42.293 29.6064 42.2949 29.6563C42.2968 29.7062 42.2882 29.7559 42.2698 29.8023C42.2514 29.8486 42.2235 29.8907 42.188 29.9257C41.1566 31.3644 40.1346 32.8097 39.122 34.2617C38.951 34.5077 38.87 34.5567 38.653 34.2997C34.259 29.0924 29.859 23.8897 25.453 18.6917C24.979 18.1317 24.517 17.5597 24.022 17.0177C23.789 16.7617 23.805 16.5937 24.022 16.3367C26.5553 13.3607 29.0833 10.379 31.606 7.39169C31.861 7.09969 32.1 6.8127 32.39 6.4577Z" fill="#47ABD8"/>
<path d="M34.037 34.7916H19.156C18.214 34.7916 17.271 34.7766 16.329 34.7916C16.2042 34.7977 16.0798 34.7725 15.9672 34.7184C15.8546 34.6643 15.7572 34.5829 15.684 34.4816C10.7186 28.6043 5.74831 22.7316 0.772975 16.8636C0.597975 16.6576 0.533974 16.5266 0.746974 16.2756C5.15897 11.0756 9.56364 5.87296 13.961 0.667625C14.0097 0.586577 14.0778 0.518865 14.1591 0.470531C14.2404 0.422198 14.3325 0.394744 14.427 0.390625C16.899 0.399625 19.371 0.395626 21.955 0.395626L21.483 0.954628C17.2496 5.94796 13.0136 10.9383 8.77497 15.9256C8.50197 16.2456 8.54297 16.4046 8.78897 16.6936C12.4996 21.0603 16.203 25.433 19.899 29.8116C20.022 29.9576 20.12 30.1116 20.361 30.0836C21.469 29.9726 22.58 29.8776 23.691 29.7776C23.728 29.5866 23.581 29.5086 23.496 29.4076C21.848 27.4556 20.196 25.5076 18.54 23.5636C18.318 23.3046 18.272 23.1406 18.525 22.8566C19.362 21.9126 20.17 20.9436 20.973 19.9716C21.18 19.7206 21.286 19.7176 21.503 19.9716C25.629 24.8456 29.7606 29.7146 33.898 34.5786C33.957 34.6496 34.044 34.7056 34.037 34.7916Z" fill="#FF4242"/>
</svg>
